<svg xmlns="http://www.w3.org/2000/svg" width="124" height="124" viewBox="0 0 124 124"><g fill="#aaaaaa"><path d="M46.6 110c-.8 3.1.8 4.7 3.2 5.3l2.7.6 2.1-8.6-2.6-.6c-2.2-.4-4.7.3-5.4 3.3zm4.6 3.9-.9-.2c-1.8-.4-2.3-1.5-1.9-3.2.4-1.6 1.5-2.4 3.3-2l.8.2-1.3 5.2zM39.9 104.3l4.1 1.8-.8 1.9-2.3-1-.7 1.6 2.3 1-.6 1.4-4-1.8-.7 1.6 5.6 2.5 3.5-8.1-5.7-2.5M37.8 101l-1.8 2.6-1.5-1 .5-3.5-1.6-1.1-.5 3.8c-1.2-.3-2.1.1-2.8 1.2-1.1 1.6-.4 3.1.9 4l3.4 2.3 4.9-7.3-1.5-1zm-4 5.9-1.9-1.3c-.6-.4-.9-1-.4-1.6.4-.6 1-.7 1.7-.2l1.9 1.3-1.3 1.8zM25.002 102.128l5.898-6.53 1.336 1.205-5.898 6.532zM28.2 92.9l-3 2.5c-.4.3-1.2 1-1.5 1.2.1-.2.3-.7.4-1.1l1.6-5.6-1-1.2-6.7 5.7 1.1 1.3 2.9-2.4c.4-.3 1.2-1 1.5-1.2-.1.2-.3.7-.4 1.1l-1.6 5.4 1.1 1.3 6.8-5.6-1.2-1.4zM22.2 84.2c-1-1.8-2.8-2.5-4.8-1.4l-1 .6 1.5 2.8 1.4-.8-.7-1.2c.7-.3 1.4-.2 2 .9.6 1.2.0 2.4-1.5 3.2-1.4.8-2.8.7-3.4-.5-.5-.8-.2-1.4.2-2l-1.4-1.1c-.9 1.2-1.2 2.4-.3 4 1.1 2 3.5 2.5 5.9 1.2 2.4-1.5 3.2-3.7 2.1-5.7zM18.1 74.8l-3.6.9-.8-3.5 3.6-.9-.4-1.7-8.6 2.1.4 1.7 3.3-.8.9 3.5-3.3.8.4 1.7 8.6-2.1M16.5 66.5l-2-.6-.1-3.2 1.9-.8V60l-8.7 3.7.1 1.7 8.9 3-.1-1.9zm-5.3-1.6c-.5-.2-1.1-.3-1.4-.4.3-.1.8-.3 1.4-.5l1.6-.6.1 2-1.7-.5zM17.3 52.6l-1.7-.2-.6 4.3-7-.9-.3 1.7 8.8 1.2M19.5 45.5l-1.7-.5-1.3 4.2-6.8-2.1-.5 1.7 8.4 2.6M28.4 31.4c1.6-1.6 2.1-4.2-.1-6.3-2.3-2.2-4.5-1.7-6.2.2l-1.9 2 6.4 6 1.8-1.9zm-5.8-4.2.6-.7c1.3-1.4 2.5-1.3 3.8-.1 1.2 1.1 1.4 2.5.1 3.8l-.6.6-3.9-3.6zM37.6 23.5l-1-1.4-3.7 2.7-1.2-1.7 2-1.5-1-1.3-2.1 1.5-.9-1.3 3.5-2.6-1-1.3-4.9 3.6 5.2 7.1M40.3 22.1l-1.4-2.8 1.6-.8 2.8 2.1 1.8-.9-3-2.3c.8-.9.9-1.9.3-3.1-.8-1.7-2.5-1.9-4-1.1L34.7 15l3.9 7.9 1.7-.8zm-3.2-6.4 2.1-1c.7-.3 1.3-.3 1.6.4.3.7.1 1.2-.6 1.6l-2.1 1-1-2zM45.78 10.175l2.774 8.35-1.708.57-2.774-8.353zM52.5 17.5l-.7-3.8c-.1-.5-.3-1.6-.4-1.9.1.2.5.6.8.9l4 4.2 1.5-.3-1.5-8.7-1.7.3.6 3.7c.1.5.3 1.6.4 1.9-.2-.2-.5-.6-.8-.9l-3.9-4.1-1.7.3 1.5 8.7 1.9-.3zM59.3 12.1c-.1 2.8 1.5 4.6 3.8 4.6 2 0 3.6-1.2 3.6-3.5V12h-3.2v1.6h1.4c-.1.8-.5 1.3-1.7 1.3-1.3.0-2.1-1.2-2-2.9.0-1.6.8-2.8 2.1-2.8 1 0 1.3.5 1.7 1.2l1.7-.7c-.6-1.4-1.5-2.2-3.3-2.3-2.4.2-4.1 2-4.1 4.7zM74.2 14.3l3.5 1-1.1 3.6 1.7.5 2.5-8.5-1.7-.5-1 3.3-3.4-1.1.9-3.2-1.7-.5-2.4 8.5 1.7.5M81.2 20.6l1.5-1.4 2.9 1.5-.3 2.1 1.7.9 1.1-9.3-1.5-.8-7 6.3 1.6.7zm4-3.8 1-1c-.1.3-.2.9-.2 1.4l-.2 1.7L84 18l1.2-1.2zM92.8 28.2l1.1-1.4-3.5-2.7 4.3-5.5-1.4-1.1-5.4 6.9M97.9 33.7l1.3-1.2-3-3.3 5.2-4.8-1.2-1.3-6.5 6m12 19.3c.7 2.2 2.6 3.9 5.5 3 3.1-.9 3.7-3.1 2.9-5.5l-.8-2.6-8.4 2.5.8 2.6zm6.5-2.9.3.9c.5 1.8-.1 2.8-1.8 3.3-1.5.5-2.8.0-3.4-1.8l-.3-.8 5.2-1.6zM107.9 60.3l1.7-.2-.5-4.5 2.1-.2.3 2.5 1.7-.2-.3-2.5 1.5-.2.5 4.3 1.7-.2-.7-6-8.7 1M107.8 63.6l3.2.2-.1 1.8-3.3 1.4-.1 2 3.5-1.5c.4 1.1 1.2 1.8 2.5 1.9 1.9.1 2.9-1.2 3-2.8l.3-4.1-8.8-.6-.2 1.7zm4.8.3 2.3.1-.2 2.3c-.1.8-.4 1.2-1.2 1.2-.8.0-1.1-.5-1.1-1.3l.2-2.3zM115.315 74.09l-8.62-1.768.36-1.763 8.622 1.767zM105.7 76l3.6 1.3c.5.2 1.5.5 1.8.6-.3.0-.8.2-1.1.2l-5.6 1.4-.5 1.5 8.3 3 .6-1.6-3.5-1.3c-.5-.2-1.5-.5-1.8-.6.3.0.8-.2 1.1-.2l5.4-1.4.6-1.6-8.3-3-.6 1.7zM107.1 84.6c-2.4-1.4-4.7-1-5.9 1-1 1.8-.7 3.7 1.2 4.8l1 .6 1.6-2.7-1.4-.8-.7 1.2c-.6-.5-.9-1.1-.3-2.2.7-1.1 2.1-1.2 3.5-.4 1.4.8 2 2.1 1.3 3.2-.5.8-1.1.9-1.8.9l-.3 1.8c1.5.2 2.7-.2 3.6-1.7 1.3-2 .5-4.3-1.8-5.7zM95.2 93.8l2.6 2.6-2.6 2.5-2.6-2.6-1.2 1.2 6.1 6.3 1.3-1.2-2.4-2.4 2.6-2.5 2.4 2.4 1.2-1.2-6.1-6.3M88.9 99.4l.5 2-2.7 1.7-1.6-1.3-1.6 1.1 7.6 5.6 1.4-.9-2-9.2-1.6 1zm.5 5.8-1.3-1 1.7-1.1.4 1.6c.1.5.3 1.1.4 1.4-.3-.2-.8-.5-1.2-.9zM76.5 105.8l.7 1.6 4-1.7 2.8 6.5 1.6-.7-3.4-8.1M69.3 107.5l.3 1.7 4.3-1 1.7 6.9 1.7-.4-2-8.6"/></g><circle fill="#aaaaaa" cx="18.5" cy="37.5" r="2.3"/><circle fill="#aaaaaa" cx="105.5" cy="37.5" r="2.3"/><circle fill="#aaaaaa" cx="62.5" cy="112.5" r="2.3"/><path fill="#aaaaaa" d="M62 3c32.5.0 59 26.5 59 59s-26.5 59-59 59S3 94.5 3 62 29.5 3 62 3m0-3C27.8.0.0 27.8.0 62s27.8 62 62 62 62-27.8 62-62S96.2.0 62 0z"/><path fill="#aaaaaa" d="M62 24c21 0 38 17 38 38s-17 38-38 38-38-17-38-38 17-38 38-38m0-3c-22.6.0-41 18.4-41 41s18.4 41 41 41 41-18.4 41-41-18.4-41-41-41z"/><g fill="#aaaaaa"><path d="M55.8 78v-7h3.6v1.2H57v1.5h1.6v1.2H57v1.9h2.4V78h-3.6zM62.5 78.1c-1 0-1.6-.5-2.1-1.1l.9-.9c.4.5.9.8 1.3.8.5.0.8-.3.8-.8.0-.4-.2-.7-1.1-1.1-1-.5-1.7-1.1-1.7-2.2s.8-1.9 2-1.9c.9.0 1.4.4 1.9 1l-.8.8c-.4-.5-.6-.6-1.1-.6-.4.0-.7.3-.7.6.0.4.2.7 1 1.1 1.2.7 1.7 1.1 1.7 2.3.0 1.2-.8 2-2.1 2zM68.1 72.2V78h-1.3v-5.8h-1.5V71h4.2v1.2h-1.4z"/></g><g fill="#aaaaaa"><path d="M53.1 86.8c1.7-.8 2.5-1.4 2.5-3 0-1.9-1.3-2.8-3.6-2.8-1.6.0-2.9.6-4 1.6l1.3 1.5c.7-.7 1.6-1.2 2.8-1.2 1.2.0 1.6.5 1.6 1 0 .4-.3.8-1.1 1.2-2.4 1.1-4.5 2.5-4.5 5.9H56v-2h-5.5c.2-1 .9-1.4 2.6-2.2zM61 81c-2.7.0-4.2 2-4.2 5 0 2.9 1.5 5 4.2 5s4.2-2.1 4.2-5c0-3-1.5-5-4.2-5zm0 8.1c-1.5.0-2.2-1.4-2.2-3.1.0-1.7.6-3.1 2.2-3.1s2.2 1.4 2.2 3.1-.7 3.1-2.2 3.1zM72.9 81c-.2 1-.9 1.4-1.9 1.5V84h2v7h2V81h-2.1zm-5 0c-.2 1-.9 1.4-1.9 1.5V84h2v7h2V81h-2.1z"/></g><path fill="#aaaaaa" d="M49.1 40h-7.6c-.2.0-.4.2-.4.4v23.2c0 .2.2.4.4.4h7.3c3.2.0 6.1-1 8.2-2.7 2.6-2.1 4-5.3 4-9.3.0-3.9-1-7-3-9s-5-3-8.9-3zm5.2 17.3c-1.3 1.3-2.7 2-5.1 2h-2.7c-.2.0-.4-.2-.4-.4V45.1c0-.2.2-.4.4-.4H49c5 0 7.2 2.3 7.2 7.3-.1 2.3-.7 4.1-1.9 5.3zM82.6 40h-4.1c-.2.0-.4.2-.4.4v10.2c0 .2-.2.4-.4.4h-8.3c-.2.0-.4-.2-.4-.4V40.4c0-.2-.2-.4-.4-.4h-4.1c-.2.0-.4.2-.4.4v23.2c0 .2.2.4.4.4h4.1c.2.0.4-.2.4-.4v-7.2c0-.2.2-.4.4-.4h8.3c.2.0.4.2.4.4v7.2c0 .2.2.4.4.4h4.1c.2.0.4-.2.4-.4V40.4c0-.2-.2-.4-.4-.4z"/></svg>